<svg xmlns="http://www.w3.org/2000/svg" width="686.423" height="1002.778" viewBox="0 0 686.423 1002.778">
  <g id="Grupo_58" data-name="Grupo 58" transform="translate(1926 -11696)">
    <g id="Group_1" data-name="Group 1" transform="translate(-2476.646 11624.606)">
      <path id="Path_1" data-name="Path 1" d="M1024.679,575.3s36.518,75.347,90.961,55.2c-26.144,25.336-36.021,24.738-36.021,24.738s32.461,58.859,130.918,33.17c3.138,35.243-43.541,43.734-51.075,43.648,4.716,15.646,91.5,183.6-93.417,319.084,22.947-39.745,141.267-191.386,21.673-326.726,7.577,35.6,85.745,290.32-133.207,349.753,19.33-15.411,171.8-67.052,82.195-307.081-2.319-7.12-32.287-160.271-12.567-190.83C1024.677,575.3,1024.679,575.3,1024.679,575.3Z" fill="#3ec42c"/>
      <path id="Path_2" data-name="Path 2" d="M1004.422,582.375s-42.762-34.677-65.48-67.214c0,6.436-25.187,88.418,14.616,216,3.744,14.05,103.822,204.3-64.883,287.408,8.7,1,199.465,18.03,119.361-287.408-.485-1.85-21.761-98.067-3.874-146.452.04-.109,1-1.737.26-2.334" fill="#3ec42c"/>
      <path id="Path_3" data-name="Path 3" d="M919.8,381.916c.055.079-58.255,141.36,5.227,358.444.136.464,57.1,211.5-72.979,250.5,5.985-6.869,96.089-24.947-1.167-272.088-.151-.384-50.248-82.006,65.575-336.859C920.055,380.4,919.744,381.837,919.8,381.916Z" fill="#3ec42c"/>
      <path id="Path_4" data-name="Path 4" d="M899.855,364.294s-.057.041-.409.315c-4.1,3.146-90.786,74.51-76.65,448.108-8.981-6.06-139.8-101.5-38.33-363.127-6.028,3.388-113.256,84.858-72.575,261.435-8.887-8.485-68.159-58.632-78.717-136.437-17.481,9.418-44.7,29.537-82.528,2.036,18.459-19.421,48.485-36.654,68.17-74.989,34.4-127.227,114.257-262.212,268.8-281.318.469,30.733,7.274,10.559-47.1,55.928-3,2.5-162.932,88.572-148.151,258.669,2.218-10.245,62.084-266.824,185.926-249.187,17.4,23.191,17.17,23.6,17.17,23.6s-81.936,71.7-73.894,145.4c.824-11.288,16.016-48.28,77.158-89.434" fill="#3ec42c"/>
      <path id="Path_5" data-name="Path 5" d="M621.4,372.911s8.44-181.9,254.547-171.585c-7.286,10.771-8.046,11.925-8.046,11.925S694.416,275.994,621.4,372.911Z" fill="#3ec42c"/>
      <path id="Path_6" data-name="Path 6" d="M896.558,184.206s-6.339-23.867,44.591-36.189c-8.2-3.543-167.638-77.377-230.433,55C726.46,198.9,790.722,142.671,896.558,184.206Z" fill="#3ec42c"/>
      <path id="Path_7" data-name="Path 7" d="M862.049,88.428S965.614,22.8,987.065,149.177c-23.58.364-24.383,0-24.383,0S913.815,96.24,862.049,88.428Z" fill="#3ec42c"/>
      <path id="Path_8" data-name="Path 8" d="M1004.773,189.216s66.461-66.621-.186-113.557c-7.6-.772-36.168-3.134-30.742,0s34.115,33.69,21.125,89.787C1002.213,184.927,1004.773,189.216,1004.773,189.216Z" fill="#3ec42c"/>
      <path id="Path_9" data-name="Path 9" d="M1080.345,137.453s-17.045,2.227-29.816-9.857c-.658,20.454,2.8,29.809-22.037,56.381C1031.919,185.717,1073.651,201.368,1080.345,137.453Z" fill="#3ec42c"/>
      <path id="Path_10" data-name="Path 10" d="M1130.592,174.134s-20.542,10.39-35.729-20.429c-6.845,12.819-6.462,16.761-24.326,42.935a219.713,219.713,0,0,0,20.519,16.8C1090.514,212.9,1105.974,188.41,1130.592,174.134Z" fill="#3ec42c"/>
      <path id="Path_11" data-name="Path 11" d="M987.065,229.249s9.752-10.678-14.032-28.047c-.573-5.506-24.9-33.588-53.433,8.477-1.3,6.226-17.9,104.652,37.648,107.435,4.067-2.147,4.557-7.955,4.557-7.955s-25.051-1.187-9.456-99.48c17.035.594,21.841-3.347,29.453,19.57C982.244,230.454,987.52,230.1,987.065,229.249Z" fill="#3ec42c"/>
      <path id="Path_12" data-name="Path 12" d="M1015.7,220.318c0-.667,14.97-20.652,14.97-20.652s41.917,2.623,76.775,47c4.322,3.409,17.93,31.748,22.178,34.149-2.791,6.269-4.921,7.522-4.921,7.522s-20.962-18.083-22.958-23.29c-3.222,4.575-3.865,27.327,38.086,46.453,1.043,6.836-3.942,21.874-10.207,26.428-5.891-.03-23.885-10.407-27.879-18.318-8.334,4.675-9.761,5.889-9.761,5.889h-4.447l-3.359,2.168s36.773,11.031,30.917,37.7c35.242-31.831,36.6-31.99,36.6-31.99s-3.822-1.337-3.4-2.666,4.319-5.208,4.319-5.208,2.97-6.367,3.75,0c-.248,2.225,0,2.638,0,2.638s73.441,54.414,80.706,96.767c-11.52,7.558-32.739,14.447-59.436-5.6-1.555,18.926-6.5,26.026,17.279,50.283,1.6-3.115-11.523-22.337-10.01-24.908s27.276,4.186,27.276,4.186a36.406,36.406,0,0,0-1.473,12.222,71.358,71.358,0,0,1,0,11.155s-1.245,23.793-18.525,29.325c-19.652,4.387-29.849,4.915-29.849,4.915a59.76,59.76,0,0,0-35.771,37.4c24.73-13.223,43.808-28.026,78.9-20.725-.2,22.078-8.057,50.065-28.5,62.948-2.156-20.535-3.482-26.637-3.482-26.637s-8.216,10.851-10.178,21.569c-3.321.245-12.272,2.914-11.889-31.372-14,23.68-9.209,25.04-34.872,28.941-11.269-7.835-25.165-9.232-8.745-42.432,3.3-9.432,17.763-68.535-59.372-68.424,12.97,2.13,24.707,3.752,33.677,16.742-10.012,2.655-73.668-1.524-41.312,70.522-9.327-5.156-98.733-84.837-25.795-139.452,9.839-3.046,12.451-7.875,48.855,11.737,17.26.623,19.926,8.894,56.169-35.1-41.757,22.894-28.375,31.735-43.641,23.367s-99.274-106.4-120.15,46.487c-15.128-1.769-18.044,11.919-3.869-120.708,7.551-5.3,24.636-12.886,29.8-34.514,16.169,12.633,55.463,47.144,78.6,21.31-.385-3.775-7.2-6.427-38.707-18.18C1023.814,295.182,1067.581,254.47,1015.7,220.318Z" fill="#3ec42c"/>
    </g>
  </g>
</svg>
